<svg width="203" height="308" viewBox="0 0 203 308" fill="none" xmlns="http://www.w3.org/2000/svg">
<path fill-rule="evenodd" clip-rule="evenodd" d="M101.718 218.383C80.9045 208.81 68.5081 182.448 82.6311 159.774C85.2612 155.858 88.5298 152.485 91.6739 149.24C100.04 140.606 107.525 132.883 99.7487 118.263C94.3994 108.207 78.9936 104.997 69.7929 111.63C-16.3611 178.595 37.3552 237.529 87.8868 292.969C91.4453 296.873 94.988 300.76 98.4649 304.631C100.255 306.527 100.957 307.49 101.718 307.545V218.383Z" fill="white"/>
<path fill-rule="evenodd" clip-rule="evenodd" d="M101.729 307.566C101.753 307.569 101.776 307.572 101.8 307.573C102.584 307.627 103.434 306.718 105.603 304.874C116.686 294.891 127.741 284.966 138.766 275.067C157.753 258.02 176.655 241.049 195.47 223.993C202.959 217.36 205.099 205.592 200.178 197.889C185.804 174.742 167.685 191.819 153.919 204.794C151.905 206.692 149.985 208.501 148.183 210.085C132.459 223.78 115.298 224.65 101.729 218.38V307.566Z" fill="url(#paint0_linear_93_157)"/>
<path d="M8.58797 85.3745L8.59683 85.3665C18.5852 76.377 28.5499 67.4111 38.5147 58.4451C58.4292 40.5268 78.3441 22.6082 98.4487 4.49982C98.8944 4.12079 99.2677 3.79642 99.5899 3.5164C100.08 3.09082 100.451 2.76767 100.781 2.5107C100.954 2.3757 101.078 2.29108 101.161 2.23872C101.227 2.29221 101.319 2.37221 101.44 2.49005C101.713 2.75575 102.008 3.07783 102.398 3.50159C102.68 3.80888 103.011 4.16959 103.418 4.60107C106.908 8.48601 110.457 12.3796 114.017 16.2858C123.972 27.2079 134.016 38.228 143.102 49.43C155.435 64.636 165.896 80.056 171.857 95.8021C177.805 111.514 179.261 127.518 173.632 143.979C167.995 160.465 155.193 177.582 132.295 195.385C128.108 198.392 122.422 199.219 117.09 198.062C111.749 196.903 106.986 193.804 104.562 189.248C101.989 184.411 101.222 180.492 101.538 177.139C101.856 173.78 103.277 170.817 105.387 167.913C107.324 165.249 109.773 162.721 112.4 160.009C112.663 159.738 112.927 159.466 113.193 159.191C116.084 156.199 119.112 152.985 121.601 149.279L121.615 149.257L121.629 149.236C145.853 110.343 95.0061 61.2225 53.8955 97.0285L53.8905 97.0329C52.1021 98.6045 50.2038 100.392 48.239 102.243L48.1213 102.354C46.1861 104.178 44.1815 106.068 42.1161 107.914C37.8905 111.69 33.488 115.214 29.069 117.533C24.6508 119.852 20.3744 120.884 16.3188 119.929C12.2854 118.979 8.14803 115.986 4.16035 109.565L4.15528 109.556L4.1501 109.548C-0.318212 102.554 1.57072 91.5897 8.58797 85.3745Z" fill="white" stroke="url(#paint1_linear_93_157)" stroke-width="3"/>
<path fill-rule="evenodd" clip-rule="evenodd" d="M195.465 223.97C202.954 217.337 205.094 205.569 200.173 197.866C183.697 171.334 162.3 197.652 148.178 210.062C108.38 244.725 59.3806 197.224 82.7033 159.779C92.332 145.443 110.519 138.382 99.8209 118.269C94.4717 108.212 79.0658 105.003 69.8651 111.636C-22.3559 183.316 45.6865 245.795 98.5371 304.637C102.175 308.488 101.319 308.488 105.598 304.851C135.768 277.677 165.51 250.93 195.465 223.97Z" fill="url(#paint2_linear_93_157)"/>
<defs>
<linearGradient id="paint0_linear_93_157" x1="102.453" y1="237" x2="202.826" y2="195.316" gradientUnits="userSpaceOnUse">
<stop stop-color="white"/>
<stop offset="1" stop-color="#F5C113"/>
</linearGradient>
<linearGradient id="paint1_linear_93_157" x1="89.4528" y1="0.668945" x2="89.4528" y2="200.063" gradientUnits="userSpaceOnUse">
<stop stop-color="#9B76C4"/>
<stop offset="1" stop-color="#687CC3"/>
</linearGradient>
<linearGradient id="paint2_linear_93_157" x1="113.606" y1="307.553" x2="113.606" y2="108.159" gradientUnits="userSpaceOnUse">
<stop stop-color="#687CC2"/>
<stop offset="1" stop-color="#9777C4"/>
</linearGradient>
</defs>
</svg>
