<svg xmlns="http://www.w3.org/2000/svg" xmlns:xlink="http://www.w3.org/1999/xlink" width="692" height="1056"><g><defs><path d="M 26.327 297.491 C 59.685 267.338 93.042 237.185 125.917 207.032 C 192.632 146.727 259.348 86.421 326.064 26.116 C 327.515 24.657 328.965 23.684 329.931 22.711 C 331.381 21.252 332.831 20.279 333.8 19.307 C 334.281 18.82 334.766 18.334 335.25 18.334 C 335.25 18.334 335.731 18.82 336.216 19.307 C 337.182 20.279 338.15 21.252 339.601 22.711 C 340.566 23.684 341.535 25.143 342.985 26.602 C 354.587 39.733 366.673 52.864 378.277 65.995 C 411.635 102.47 444.992 139.432 475.449 177.366 C 516.542 228.431 551.353 279.983 571.174 332.993 C 590.995 385.518 595.827 439.501 576.975 494.458 C 558.119 549.898 515.576 607.287 439.191 667.105 C 425.171 677.318 406.315 679.75 388.429 675.861 C 370.542 671.969 354.587 661.756 346.851 646.194 C 338.15 630.145 335.731 617.015 336.7 605.341 C 337.666 594.157 342.501 583.944 349.752 574.217 C 356.037 565.461 364.257 556.708 372.958 547.467 C 373.924 546.495 374.893 545.524 375.374 544.549 C 385.044 534.336 395.195 523.637 403.415 511.478 C 484.153 381.141 314.46 216.273 177.646 336.399 C 171.844 341.749 165.559 347.584 158.791 353.905 L 158.308 354.394 C 152.023 360.715 145.255 367.038 138.486 372.874 C 124.466 385.518 109.48 397.189 94.976 404.97 C 80.473 412.751 65.97 416.158 52.433 413.24 C 38.896 409.834 25.36 400.109 11.824 378.223 C -3.163 354.879 3.121 317.916 26.327 297.491 Z" id="a1006z"></path><clipPath id="a1007z"><use xlink:href="#a1006z"></use></clipPath></defs><use xlink:href="#a1006z" fill="transparent" clip-path="url(#a1007z)" stroke-width="4.52" stroke="#8568db" stroke-miterlimit="10"></use></g><g><defs><path d="M 649.984 762.432 C 675.121 740.06 681.891 700.665 665.454 674.89 C 610.341 585.89 539.273 674.404 491.898 715.742 C 358.949 831.977 195.544 672.458 273.379 546.984 C 305.286 498.836 366.2 475.007 330.424 407.891 C 312.537 374.334 261.292 363.146 230.352 385.518 C -77.12 626.256 149.616 835.869 326.073 1033.32 C 338.159 1046.451 335.259 1046.451 349.764 1033.806 C 450.802 942.374 549.908 852.889 649.984 762.432 Z" id="a1008z"></path><clipPath id="a1009z"><use xlink:href="#a1008z"></use></clipPath></defs><use xlink:href="#a1008z" fill="transparent" clip-path="url(#a1009z)" stroke-width="4.52" stroke="#8568db" stroke-miterlimit="10"></use></g></svg>