<svg xmlns="http://www.w3.org/2000/svg" width="25" height="19"><path d="M 21.144 1.594 C 19.548 0.864 17.852 0.332 16.07 0.02 C 16.037 0.02 16.004 0.02 15.991 0.06 C 15.771 0.452 15.525 0.957 15.359 1.355 C 13.431 1.07 11.536 1.07 9.661 1.355 C 9.488 0.943 9.242 0.445 8.996 0.06 C 8.976 0.033 8.949 0.013 8.916 0.02 C 7.387 0.326 5.432 0.884 3.863 1.594 C 3.85 1.594 3.836 1.608 3.83 1.621 C 0.572 6.471 -0.293 11.121 0.173 15.771 C 0.173 15.791 0.186 15.818 0.206 15.838 C 2.334 17.406 4.395 18.362 6.43 18.98 C 6.463 18.98 6.496 18.98 6.516 18.953 C 6.995 18.302 7.42 17.612 7.793 16.881 C 7.812 16.841 7.793 16.788 7.746 16.774 C 7.081 16.509 6.416 16.203 5.798 15.844 C 5.751 15.818 5.745 15.745 5.798 15.712 C 5.931 15.612 6.064 15.512 6.184 15.413 C 6.203 15.393 6.237 15.393 6.263 15.399 C 10.346 17.259 14.774 17.259 18.763 15.399 C 18.79 15.386 18.823 15.393 18.843 15.406 C 18.969 15.512 19.096 15.612 19.229 15.712 C 19.275 15.745 19.269 15.818 19.229 15.844 C 18.61 16.21 17.965 16.509 17.281 16.774 C 17.234 16.794 17.214 16.841 17.241 16.887 C 17.613 17.618 18.045 18.302 18.504 18.947 C 18.524 18.973 18.557 18.987 18.59 18.973 C 20.625 18.342 22.693 17.392 24.827 15.831 C 24.847 15.818 24.86 15.798 24.86 15.765 C 25.379 10.39 23.989 5.733 21.177 1.614 C 21.177 1.601 21.157 1.588 21.144 1.588 Z M 8.378 12.955 C 7.114 12.955 6.117 11.825 6.117 10.43 C 6.117 9.035 7.114 7.906 8.378 7.906 C 9.641 7.906 10.638 9.035 10.638 10.43 C 10.638 11.825 9.641 12.955 8.378 12.955 Z M 16.689 12.955 C 15.426 12.955 14.428 11.825 14.428 10.43 C 14.428 9.035 15.426 7.906 16.689 7.906 C 17.952 7.906 18.949 9.035 18.949 10.43 C 18.949 11.825 17.952 12.955 16.689 12.955 Z" fill="#ffffff"></path></svg>