<svg xmlns="http://www.w3.org/2000/svg" width="24" height="24"><path d="M 4.372 7.264 C 4.397 7.017 4.303 6.773 4.12 6.606 L 2.252 4.339 L 2.252 4 L 8.05 4 L 12.532 13.905 L 16.472 4 L 22 4 L 22 4.339 L 20.403 5.88 C 20.265 5.986 20.197 6.16 20.226 6.332 L 20.226 17.666 C 20.197 17.838 20.265 18.012 20.403 18.118 L 21.963 19.66 L 21.963 20 L 14.12 20 L 14.12 19.661 L 15.735 18.081 C 15.894 17.921 15.894 17.874 15.894 17.63 L 15.894 8.468 L 11.402 19.962 L 10.796 19.962 L 5.566 8.468 L 5.566 16.172 C 5.523 16.496 5.63 16.822 5.856 17.056 L 7.957 19.624 L 7.957 19.962 L 2 19.962 L 2 19.624 L 4.1 17.056 C 4.325 16.821 4.426 16.493 4.372 16.172 Z" fill="#ffffff"></path></svg>